<svg xmlns="http://www.w3.org/2000/svg" viewBox="0 0 365 338.74"><defs><style>.cls-1{fill:#80928d}.cls-2{fill:#005a92}</style></defs><g id="Layer_2" data-name="Layer 2"><g id="Layer_1-2" data-name="Layer 1"><path class="cls-1" d="M26.4 308.16a5.16 5.16 0 0 0-1.85-4.1 20.8 20.8 0 0 0-4.65-2.87q-2.8-1.31-6.07-2.68a30.84 30.84 0 0 1-6.06-3.39 17.39 17.39 0 0 1-4.66-5 14.4 14.4 0 0 1-1.85-7.65 16.8 16.8 0 0 1 1.34-7 13.27 13.27 0 0 1 3.82-4.93 16.54 16.54 0 0 1 5.88-2.91 28.07 28.07 0 0 1 7.56-1 48.29 48.29 0 0 1 9.06.82 23 23 0 0 1 7 2.42L32.55 279a18.75 18.75 0 0 0-5.2-2 29.34 29.34 0 0 0-7.49-.91 9.56 9.56 0 0 0-5.79 1.5 4.75 4.75 0 0 0-2 4 5 5 0 0 0 1.85 3.93 20.76 20.76 0 0 0 4.65 2.92c1.86.89 3.89 1.81 6.07 2.76a33 33 0 0 1 6.07 3.43 17.75 17.75 0 0 1 4.65 5A13.68 13.68 0 0 1 37.2 307a18.25 18.25 0 0 1-1.46 7.61 14.36 14.36 0 0 1-4.1 5.31 17 17 0 0 1-6.38 3.15 31.29 31.29 0 0 1-8.24 1A44.13 44.13 0 0 1 6.62 323 32.31 32.31 0 0 1 0 320.77l3.47-9.22a21.73 21.73 0 0 0 2.24 1 30.14 30.14 0 0 0 3.12 1 37.34 37.34 0 0 0 3.66.79 24.77 24.77 0 0 0 4 .31c3.21 0 5.66-.54 7.37-1.61a5.42 5.42 0 0 0 2.54-4.88ZM41.88 272.46a5.21 5.21 0 0 1 1.7-3.9 6.54 6.54 0 0 1 4.69-1.56 7.12 7.12 0 0 1 4.84 1.61 5 5 0 0 1 1.86 3.9 4.77 4.77 0 0 1-1.86 3.83 7.35 7.35 0 0 1-4.84 1.53 6.74 6.74 0 0 1-4.69-1.53 5 5 0 0 1-1.7-3.88Zm1.5 11.12h10.25V323H43.38ZM71.91 309.74a8.76 8.76 0 0 0 .7 4 2.45 2.45 0 0 0 2.3 1.26 10.24 10.24 0 0 0 1.84-.16 10.61 10.61 0 0 0 2.25-.71l1.1 8a19.24 19.24 0 0 1-3.86 1.26 22.66 22.66 0 0 1-5.36.63c-3 0-5.28-.69-6.86-2.09s-2.36-3.69-2.36-6.89v-47.23h10.25ZM96.86 304.22l1.34 6.07h.39l1.11-6.23 6.69-20.48h11.04l-16.47 39.79h-6.23l-17.1-39.79h11.9l7.33 20.64zM151.9 319.59a20.22 20.22 0 0 1-6.42 3.19 28.08 28.08 0 0 1-8.63 1.3q-9.54 0-13.95-5.55t-4.42-15.25q0-10.39 5-15.61t13.94-5.2a21.94 21.94 0 0 1 5.84.79 13.75 13.75 0 0 1 5 2.6 12.9 12.9 0 0 1 3.55 4.89 19.24 19.24 0 0 1 1.34 7.65 34.84 34.84 0 0 1-.2 3.54c-.13 1.26-.33 2.57-.59 3.94h-23.55c.15 3.31 1 5.81 2.55 7.48s4 2.52 7.5 2.52a15.87 15.87 0 0 0 5.77-1 16.24 16.24 0 0 0 3.89-2Zm-14.62-28.92q-4 0-5.92 2.4a12 12 0 0 0-2.32 6.42h14.58q.31-4.25-1.29-6.54a5.76 5.76 0 0 0-5.05-2.28ZM181.58 293.19a13.57 13.57 0 0 0-4.41-.87 7.22 7.22 0 0 0-4.61 1.46 7 7 0 0 0-2.48 3.75V323h-10.25v-39.4h8l1.19 5.2h.31a10.71 10.71 0 0 1 3.63-4.49 9.2 9.2 0 0 1 5.35-1.58 14.82 14.82 0 0 1 4.65.87ZM214.46 309a7.53 7.53 0 0 0-2-5.39 19.74 19.74 0 0 0-4.93-3.72 65.35 65.35 0 0 0-6.43-3 35.12 35.12 0 0 1-6.42-3.43 18 18 0 0 1-4.92-5 13.25 13.25 0 0 1-2-7.52 12.68 12.68 0 0 1 4.49-10.25q4.5-3.78 12.76-3.78a50 50 0 0 1 8.76.71 23.66 23.66 0 0 1 6.14 1.81l-2 5.75a26.12 26.12 0 0 0-5.32-1.65 36 36 0 0 0-7.92-.79q-5.21 0-7.8 2.33a7.33 7.33 0 0 0-.64 10.59 20.11 20.11 0 0 0 4.93 3.67c2 1.07 4.11 2.14 6.42 3.19a37.86 37.86 0 0 1 6.42 3.67 19.4 19.4 0 0 1 4.94 5 12.68 12.68 0 0 1 2 7.25 15.56 15.56 0 0 1-1.27 6.38 13.46 13.46 0 0 1-3.7 4.89 17.22 17.22 0 0 1-5.91 3.15 25.87 25.87 0 0 1-7.88 1.1 44.07 44.07 0 0 1-9.77-.9 39.88 39.88 0 0 1-7.1-2l3.31-5.91a25.43 25.43 0 0 0 5.36 2 29.66 29.66 0 0 0 8 1 22.44 22.44 0 0 0 4.89-.51 11.35 11.35 0 0 0 3.94-1.66 8.73 8.73 0 0 0 2.64-2.87 8.13 8.13 0 0 0 1.01-4.11ZM223 283.58h6.14v-7.8l6.31-1.82v9.62h10.72v5.52h-10.7v21.82c0 2.73.34 4.67 1 5.79a3.71 3.71 0 0 0 3.46 1.7 12 12 0 0 0 3.47-.43c.94-.29 2-.68 3.15-1.15l1.42 4.81a24.49 24.49 0 0 1-4.65 1.65 22.42 22.42 0 0 1-5.44.63q-4.8 0-6.78-2.71c-1.31-1.82-2-4.85-2-9.11v-23H223ZM273.35 289.64a14.39 14.39 0 0 0-4.49-.78 7.48 7.48 0 0 0-5.36 1.85 8 8 0 0 0-2.44 4.69V323h-6.31v-39.4h4.41l1.18 4.8h.32a12.11 12.11 0 0 1 3.59-4.13 9 9 0 0 1 5.32-1.46 19.15 19.15 0 0 1 5.12.79ZM278.76 271.6a4.42 4.42 0 0 1 1.22-3.12 4.13 4.13 0 0 1 3.12-1.3 4.51 4.51 0 0 1 3.23 1.3 4.22 4.22 0 0 1 1.34 3.12 3.82 3.82 0 0 1-1.34 3 4.72 4.72 0 0 1-3.23 1.19 4.32 4.32 0 0 1-3.12-1.19 4 4 0 0 1-1.22-3Zm1.34 12h6.3V323h-6.3ZM294.91 283.58h4.34l1.19 4.72h.31a12.13 12.13 0 0 1 4.68-4.21 14.33 14.33 0 0 1 6.59-1.46q7.88 0 11.74 4.65t3.86 15.21a28.58 28.58 0 0 1-1.3 8.94 19.71 19.71 0 0 1-3.66 6.75 16.13 16.13 0 0 1-5.71 4.25 18.06 18.06 0 0 1-7.45 1.49 23.23 23.23 0 0 1-4.61-.35 18.53 18.53 0 0 1-3.67-1.22v16.39h-6.31Zm15.93 4.57a9.12 9.12 0 0 0-6.35 2.09 11.63 11.63 0 0 0-3.27 6.34v19.54a10.6 10.6 0 0 0 3.23 1.7 16.13 16.13 0 0 0 4.81.59 10.4 10.4 0 0 0 8.63-4.07q3.19-4.05 3.2-11.93a28.61 28.61 0 0 0-.56-5.87 13 13 0 0 0-1.77-4.49 8.5 8.5 0 0 0-3.15-2.87 10 10 0 0 0-4.77-1.03ZM363.66 319.82a17.72 17.72 0 0 1-5.94 3 25.65 25.65 0 0 1-7.61 1.1 19.34 19.34 0 0 1-7.81-1.45 14.05 14.05 0 0 1-5.44-4.18 18.32 18.32 0 0 1-3.15-6.5 32.73 32.73 0 0 1-1-8.51c0-6.73 1.48-11.85 4.49-15.37s7.27-5.28 12.83-5.28a25.1 25.1 0 0 1 5.37.59 12.06 12.06 0 0 1 4.8 2.25 11.9 11.9 0 0 1 3.47 4.69 19.87 19.87 0 0 1 1.34 8 39.76 39.76 0 0 1-.47 5.76h-25.3a24.15 24.15 0 0 0 .71 6.14 12.25 12.25 0 0 0 2.2 4.54 9.69 9.69 0 0 0 3.91 2.83 15.42 15.42 0 0 0 5.87 1 16.08 16.08 0 0 0 5.36-1 11.18 11.18 0 0 0 4-2.21Zm-13.55-31.67a10.91 10.91 0 0 0-7.45 2.44q-2.79 2.45-3.35 8.35h19.55q0-6-2.29-8.39a8.51 8.51 0 0 0-6.46-2.4Z"/><path class="cls-2" d="M161.27 152.18a39.16 39.16 0 0 0 10.19-54.41l-32.31 22.1A19.57 19.57 0 1 1 117 87.57l29.46-20.16 18.95-13A39.13 39.13 0 0 0 175.67 0l-32.3 22.11L95 55.23h-.07a58.71 58.71 0 0 0 66.33 96.89ZM203.74 75.64l-.2.16.24-.17a39.13 39.13 0 0 0-10.19 54.4L225.86 108A19.57 19.57 0 0 1 248 140.23l-29.48 20.18-19 13a39.15 39.15 0 0 0-10.19 54.41l32.3-22.1 48.43-33.17a58.7 58.7 0 1 0-66.32-96.88Z"/></g></g></svg>