<svg id="Layer_1" data-name="Layer 1" xmlns="http://www.w3.org/2000/svg" viewBox="0 0 40 31.86"><defs><style>.cls-1{fill:#6c11f4;fill-rule:evenodd}</style></defs><path class="cls-1" d="M36.29 11.21a22.47 22.47 0 0 1-.7-7 4 4 0 0 0-3.9-4.14H8.31a4 4 0 0 0-3.9 4.16 22.17 22.17 0 0 1-.7 7C3 13.41 1.88 14.81 0 15v2c1.88.18 3 1.58 3.71 3.78a22.17 22.17 0 0 1 .7 7 4 4 0 0 0 3.9 4.16h23.38a4 4 0 0 0 3.9-4.16 22.47 22.47 0 0 1 .7-7C37 18.59 38.12 17.19 40 17v-2c-1.88-.19-3-1.59-3.71-3.79ZM21.2 24.47h-6.28a.67.67 0 0 1-.68-.67V8.2a.67.67 0 0 1 .68-.67h6.25c3.07 0 5.09 1.66 5.09 4.22a3.78 3.78 0 0 1-3.09 3.69v.1a4.11 4.11 0 0 1 3.95 4.14c0 2.99-2.23 4.79-5.92 4.79Z" transform="translate(0 -.07)"/><path class="cls-1" d="M23.57 12.12c0-1.58-1.11-2.45-3.05-2.45h-3.59v5.07h3c2.35 0 3.64-.94 3.64-2.62ZM20.49 16.75h-3.56v5.57h3.72c2.43 0 3.71-1 3.71-2.8s-1.36-2.77-3.87-2.77Z" transform="translate(0 -.07)"/></svg>