<svg xmlns="http://www.w3.org/2000/svg" viewBox="0 0 113.93 113.92"><g data-name="Layer 2"><path d="M111.78 51.89 62 2.15a7.32 7.32 0 0 0-10.37 0l-10.3 10.33 13.1 13.1a8.72 8.72 0 0 1 11 11.11L78.1 49.32a8.72 8.72 0 0 1 9 14.41 8.73 8.73 0 0 1-14.25-9.49L61.09 42.46v31a8.94 8.94 0 0 1 2.31 1.64 8.73 8.73 0 1 1-12.35 0 8.88 8.88 0 0 1 2.86-1.9V41.92a8.72 8.72 0 0 1-4.74-11.45L36.25 17.55 2.15 51.66a7.33 7.33 0 0 0 0 10.34l49.74 49.74a7.35 7.35 0 0 0 10.38 0l49.51-49.51a7.35 7.35 0 0 0 0-10.38" style="fill:#f05133" data-name="Layer 1"/></g></svg>