<svg xmlns="http://www.w3.org/2000/svg" viewBox="0 0 362.73 512"><defs><style>.cls-3{fill:#ebebeb}</style></defs><g id="Layer_2" data-name="Layer 2"><g id="svg2"><g id="g3013"><path id="polygon2989" style="fill:#264de4" d="M181.15 512 33.01 470.88 0 100.62h362.73l-33.04 370.2L181.15 512z"/><path id="polygon2991" style="fill:#2965f1" d="m301.4 447.25 28.24-316.36H181.37v349.63l120.03-33.27z"/><path id="polygon2993" class="cls-3" d="m75.68 268.22 4.07 45.41h101.62v-45.41H75.68z"/><path id="polygon2995" class="cls-3" d="m67.5 176.31 4.13 45.41h109.74v-45.41H67.5z"/><path id="polygon2997" class="cls-3" d="m181.37 386.15-.2.06-50.58-13.66-3.23-36.22H81.78l6.36 71.3 93.02 25.83.21-.06v-47.25z"/><path id="path2999" d="M85.37 0h55v23h-32v23h32v23h-55Z"/><path id="path3001" d="M151.37 0h55v20h-32v4h32v46h-55V49h32v-4h-32Z"/><path id="path3003" d="M217.37 0h55v20h-32v4h32v46h-55V49h32v-4h-32Z"/><path id="polygon3005" style="fill:#fff" d="m286.77 268.22 8.19-91.91H181.21v45.41h63.99l-4.13 46.5h-59.86v45.41h55.92l-5.27 58.89-50.65 13.67v47.25l93.09-25.81.69-7.67 10.67-119.55 1.11-12.19z"/></g></g></g></svg>