<svg xmlns="http://www.w3.org/2000/svg" viewBox="0 0 362.73 510.79"><g data-name="Layer 2"><g data-name="Layer 1"><path d="m1.22 99.81.05 4.57c0 2.51 7.31 85.63 16.17 184.72l16.11 180.15 72.39 20.27c39.81 11.15 73.21 20.33 74.22 20.4s34.84-9 75.19-20.19c64.7-17.92 73.44-20.61 73.9-22.83.65-3.09 32.33-360.52 32.3-364.35v-2.74H1.22Z" style="fill:#fff"/><path d="m106.51 490.74-73-20.42-.95-5.4C31.67 460.12 0 106.37 0 101.7c0-1.69 18.49-1.88 181.37-1.88 171.93 0 181.37.11 181.36 2.13-.06 8.72-32.84 367.14-33.65 367.86-1 .9-142.38 40.28-147.1 41-1.34.2-35.3-8.83-75.47-20.05Zm120.91-72.14c24.55-6.77 45-12.66 45.43-13.08s3.3-29.54 6.38-64.69 5.91-66.23 6.29-69.08l.69-5.17H180.15v45h57.26l-.57 2.74c-.31 1.5-1.53 14.45-2.7 28.76-1.25 15.17-2.72 26.62-3.54 27.43s-12.44 4.35-25.92 7.94L180.15 385v23c0 15.66.42 22.94 1.32 22.94.73 0 21.41-5.54 45.95-12.31Zm58.09-180.32c-.81-6-8-86-8-89 0-1.84-4.22-2-48.09-2h-48.05v47.1l21.61.83c11.88.46 24.39 1.15 27.79 1.55l6.19.71 1.5 18.42c.82 10.13 1.81 20.48 2.18 23l.69 4.56h44.88Z" style="fill:#eaebec"/><path d="m105.94 489.52-72.39-20.27L17.44 289.1C8.58 190 1.31 106.89 1.27 104.38l-.05-4.56h360.31v2.73c0 3.83-31.65 361.26-32.3 364.35-.46 2.22-9.2 4.92-73.9 22.83-40.33 11.18-74.17 20.27-75.18 20.19s-34.4-9.25-74.21-20.4Zm121.54-70.06c25-7 45.85-13.22 46.29-13.93s3.42-31.29 6.64-68 6.12-67.67 6.44-68.84c.56-2-3.7-2.13-77.15-2.13H132l3.31-35c1.82-19.24 3.36-35 3.41-35.1s11.46-.43 25.36-.81c22.77-.63 69.75 1.19 71.32 2.76.59.58 4.45 38.48 4.45 43.65 0 2.55.34 2.59 23.59 2.59H287l-.55-5.17c-.31-2.85-2.3-24.9-4.44-49l-3.89-43.82-91-.31c-72.37-.25-91 0-91 1.22 0 .84-.53 6.18-1.17 11.87C93.42 173.23 81.56 306.28 81.56 310v2.88h154.8l-.69 4.56c-.38 2.51-1.58 15.25-2.67 28.3s-2.34 24.08-2.77 24.49c-1.13 1.09-46.66 13.25-49.5 13.22-1.32 0-13.08-2.94-26.14-6.52l-23.73-6.49-.86-10.26c-.48-5.62-1.21-13.64-1.62-17.83l-.75-7.6H81.56v4.56c.09 8.54 5.63 66 6.43 66.84s89.39 25.8 92.11 25.9c1 0 22.31-5.63 47.33-12.59Z" style="fill:#f0be25"/><path d="m105.94 489.52-72.39-20.27L17.44 289.1C8.58 190 1.31 106.89 1.27 104.38l-.05-4.56h360.31v2.73c0 3.83-31.65 361.26-32.3 364.35-.46 2.22-9.2 4.92-73.9 22.83-40.33 11.18-74.17 20.27-75.18 20.19s-34.4-9.25-74.21-20.4Zm135-27.11c31.84-8.79 58.5-16.6 59.23-17.35 1.13-1.17 28.64-302.6 28.53-312.68v-3.35H181.37v17h-42.6c-33.27 0-42.61.33-42.62 1.52 0 .84-.53 6.18-1.17 11.87C93.42 173.23 81.56 306.28 81.56 310v2.88h99.81v35.3c0 27.44-.34 35.29-1.52 35.27-.84 0-12.2-2.94-25.26-6.52l-23.73-6.49-.86-10.26c-.48-5.62-1.21-13.64-1.62-17.83l-.75-7.6H81.56v4.56c.14 13.06 5.79 66.35 7.12 67.17.8.5 22 6.58 47.05 13.52l45.59 12.62v22.88c0 12.59.38 22.88.84 22.88s26.88-7.19 58.73-16Zm-105.81-230.5c1.75-19.07 3.42-34.88 3.72-35.15s10-.74 21.52-1.06l21-.58v71.46H132Z" style="fill:#e4a126"/><path d="M115.64 56.6V45h32.87V0h23.12v68.17h-56Zm67 2.44v-9.13h15.22c8.36 0 15.21-.31 15.21-.69s-6.9-8.11-15.26-17.22l-15.22-16.45V0h63.3v18.18l-14.89.35-14.86.34 15.47 16.65 15.49 16.66v16h-64.51Z" style="fill:#0e0e0f"/></g></g></svg>