<svg id="Layer_1" data-name="Layer 1" xmlns="http://www.w3.org/2000/svg" viewBox="0 0 128.95 145.36"><defs><style>.cls-1{fill:#689f63;}</style></defs><path class="cls-1" d="M123.36,32.2,70.11,1.43a11.66,11.66,0,0,0-11.2,0L5.59,32.19A11.18,11.18,0,0,0,0,41.9v61.46a11.24,11.24,0,0,0,5.59,9.72l14,8.06c6.77,3.33,9.2,3.33,12.28,3.33,10,0,15.77-6.07,15.77-16.63V47.15a1.52,1.52,0,0,0-1.53-1.53H39.33a1.51,1.51,0,0,0-1.54,1.53v60.67c0,4.69-4.84,9.36-12.76,5.4l-14.59-8.43a1.64,1.64,0,0,1-.83-1.43V41.9a1.71,1.71,0,0,1,.85-1.46L63.69,9.72a1.65,1.65,0,0,1,1.64,0l53.25,30.72a1.73,1.73,0,0,1,.82,1.47v61.47a1.69,1.69,0,0,1-.81,1.44L65.32,135.56a1.78,1.78,0,0,1-1.65,0L50,127.46a1.36,1.36,0,0,0-1.32-.1,35.8,35.8,0,0,1-8,3.67c-.88.3-2.18.83.48,2.31l17.78,10.53a11.25,11.25,0,0,0,5.59,1.49v0a11.21,11.21,0,0,0,5.62-1.5l53.25-30.76a11.27,11.27,0,0,0,5.59-9.7V41.91A11.25,11.25,0,0,0,123.36,32.2Z"/><path class="cls-1" d="M80.93,93.66c-14.1,0-17.19-3.54-18.23-10.55a1.55,1.55,0,0,0-1.52-1.31H54.3a1.53,1.53,0,0,0-1.54,1.54c0,9,4.89,19.67,28.19,19.67l-.08.06c16.88,0,26.56-6.65,26.56-18.25S99.66,70.25,83.29,68.07c-16.54-2.18-18.22-3.32-18.22-7.2,0-3.2,1.43-7.46,13.68-7.46,11,0,15,2.36,16.64,9.73a1.54,1.54,0,0,0,1.5,1.2h7a1.54,1.54,0,0,0,1.41-1.67C104.29,49.94,95.83,44,78.78,44c-15.19,0-24.25,6.4-24.25,17.15,0,11.66,9,14.88,23.6,16.32,17.44,1.7,18.8,4.25,18.8,7.68C96.93,91.12,92.15,93.66,80.93,93.66Z"/></svg>