<svg xmlns="http://www.w3.org/2000/svg" height="400" width="800"><path d="M63.3 84.34h118.644c34.825.294 60.06 10.28 75.701 29.956 15.642 19.677 20.807 46.55 15.495 80.617-2.066 15.566-6.64 30.837-13.724 45.815-6.788 14.978-16.233 28.488-28.332 40.529-14.757 15.271-30.547 24.963-47.37 29.075-16.822 4.112-34.235 6.167-52.238 6.167H78.353L61.53 400.2H-.005L63.301 84.34m51.796 50.22L88.535 266.72c1.77.293 3.541.44 5.312.44h6.198c28.332.293 51.943-2.496 70.832-8.37 18.888-6.167 31.578-27.606 38.072-64.318 5.312-30.837 0-48.604-15.938-53.304-15.642-4.699-35.268-6.901-58.878-6.608-3.542.294-6.936.44-10.182.44h-9.297l.443-.44M343.253.223h61.093L387.08 84.365h54.895c30.104.587 52.533 6.755 67.29 18.502 15.052 11.748 19.479 34.068 13.281 66.96l-29.66 146.697h-61.978l28.332-140.088c2.951-14.684 2.066-25.11-2.656-31.278-4.722-6.167-14.905-9.251-30.546-9.251l-49.14-.44-36.3 181.057h-61.093L343.253.224M588.157 84.34h118.644c34.825.294 60.059 10.28 75.701 29.956 15.641 19.677 20.807 46.55 15.494 80.617-2.066 15.566-6.64 30.837-13.723 45.815-6.789 14.978-16.233 28.488-28.333 40.529-14.757 15.271-30.546 24.963-47.369 29.075-16.822 4.112-34.235 6.167-52.238 6.167h-53.124L586.387 400.2H524.85l63.306-315.86m51.796 50.22-26.562 132.16c1.77.293 3.542.44 5.313.44h6.197c28.333.293 51.943-2.496 70.832-8.37 18.888-6.167 31.579-27.606 38.072-64.318 5.312-30.837 0-48.604-15.937-53.304-15.642-4.699-35.269-6.901-58.879-6.608-3.542.294-6.936.44-10.182.44h-9.297l.443-.44"/></svg>