<svg xmlns="http://www.w3.org/2000/svg" viewBox="0 0 362.73 512"><defs><style>.cls-3{fill:#ebebeb}.cls-4{fill:#fff}</style></defs><g id="Layer_2" data-name="Layer 2"><g id="svg2"><g id="g3054"><path id="polygon3028" style="fill:#e44d26" d="m362.73 100.62-33.04 370.2L181.15 512 33.01 470.88 0 100.62h362.73z"/><path id="polygon3030" style="fill:#f16529" d="m181.37 480.52 120.03-33.27 28.24-316.36H181.37v349.63z"/><path id="polygon3032" class="cls-3" d="M117.13 221.72h64.24v-45.41H67.5l1.09 12.18 11.16 125.14h101.62v-45.41h-60.09l-4.15-46.5z"/><path id="polygon3034" class="cls-3" d="M127.36 336.33H81.78l6.36 71.3 93.02 25.83.21-.06v-47.25l-.2.06-50.58-13.66-3.23-36.22z"/><path id="path3036" d="M33.75 0h23.08v22.8h21.11V0H101v69H77.94V45.92H56.83V69H33.75V0Z"/><path id="path3038" d="M131.36 22.9H111V0h63.72v22.9h-20.28V69h-23.08V22.9Z"/><path id="path3040" d="M184.88 0h24.06l14.8 24.26L238.53 0h24.07v69h-23V34.82l-15.86 24.55h-.39l-15.89-24.55V69h-22.58V0Z"/><path id="path3042" d="M274.09 0h23.08v46.22h32.45V69h-55.53Z"/><path id="polygon3044" class="cls-4" d="M181.21 313.63h55.92l-5.27 58.89-50.65 13.67v47.25l93.09-25.81.69-7.67 10.67-119.55 1.11-12.19H181.21v45.41z"/><path id="polygon3046" class="cls-4" d="M181.21 221.6v.12H290.9l.91-10.21 2.07-23.02 1.08-12.18H181.21v45.29z"/></g></g></g></svg>