<svg data-name="Layer 1" xmlns="http://www.w3.org/2000/svg" viewBox="0 0 12 10.5"><path d="M7.8 8.39a1.54 1.54 0 0 0 .44-1.87 1.52 1.52 0 0 0 .46-1.27h1.73a1.56 1.56 0 1 0 0-3.11H6.65a1.55 1.55 0 0 0-.2-1.46A1.61 1.61 0 0 0 4.26.25L.65 2.86A1.57 1.57 0 0 0 0 4.13V8.3a1.56 1.56 0 0 0 1.21 1.52l2.79.64a1.47 1.47 0 0 0 .36 0h2A1.56 1.56 0 0 0 7.8 8.39ZM5.44 1.9l-.89.63a.38.38 0 0 0 .22.72h5.66a.43.43 0 1 1 0 .86h-4.1a.38.38 0 0 0-.33.34v.16a.38.38 0 0 0 .38.37h.82a.43.43 0 1 1 0 .86h-.87a.38.38 0 0 0-.33.41v.17a.38.38 0 0 0 .38.37h.49a.43.43 0 1 1 0 .86h-.54a.38.38 0 0 0-.33.33v.16a.38.38 0 0 0 .38.38.43.43 0 1 1 0 .85H4.26l-2.79-.65a.45.45 0 0 1-.35-.42V4.13a.42.42 0 0 1 .19-.35l3.6-2.53c.48-.38 1.01.31.53.65ZM2.62 4.13h2.25a.36.36 0 0 1 .38.33v.14a.36.36 0 0 1-.38.33H2.62a.36.36 0 0 1-.37-.33v-.14a.36.36 0 0 1 .37-.33Zm0 1.77h2.25a.35.35 0 0 1 .38.35v.14a.35.35 0 0 1-.38.33H2.62a.35.35 0 0 1-.37-.33v-.14a.35.35 0 0 1 .37-.35Zm0 1.76h2.25a.36.36 0 0 1 .38.33v.14a.36.36 0 0 1-.38.33H2.62a.36.36 0 0 1-.37-.33v-.14a.36.36 0 0 1 .37-.33Z"/></svg>